<svg width="37" height="36" viewBox="0 0 37 36" fill="none" xmlns="http://www.w3.org/2000/svg">
<path d="M18.0141 8.7684C12.9033 8.7684 8.78103 12.8886 8.78103 17.9966C8.78103 23.1047 12.9033 27.2248 18.0141 27.2248C23.1248 27.2248 27.2471 23.1047 27.2471 17.9966C27.2471 12.8886 23.1248 8.7684 18.0141 8.7684ZM18.0141 23.9961C14.7114 23.9961 12.0114 21.3056 12.0114 17.9966C12.0114 14.6876 14.7033 11.9971 18.0141 11.9971C21.3248 11.9971 24.0167 14.6876 24.0167 17.9966C24.0167 21.3056 21.3167 23.9961 18.0141 23.9961ZM29.7783 8.39092C29.7783 9.58762 28.8141 10.5434 27.6248 10.5434C26.4275 10.5434 25.4712 9.57959 25.4712 8.39092C25.4712 7.20226 26.4355 6.23848 27.6248 6.23848C28.8141 6.23848 29.7783 7.20226 29.7783 8.39092ZM35.8935 10.5755C35.7569 7.69218 35.098 5.13816 32.9846 3.0339C30.8792 0.929647 28.3239 0.271064 25.4391 0.126496C22.4658 -0.0421654 13.5542 -0.0421654 10.581 0.126496C7.70424 0.263032 5.14888 0.921616 3.03549 3.02587C0.922098 5.13013 0.271205 7.68415 0.126562 10.5675C-0.0421875 13.5391 -0.0421875 22.4461 0.126562 25.4177C0.26317 28.301 0.922098 30.8551 3.03549 32.9593C5.14888 35.0636 7.69621 35.7222 10.581 35.8667C13.5542 36.0354 22.4658 36.0354 25.4391 35.8667C28.3239 35.7302 30.8792 35.0716 32.9846 32.9593C35.09 30.8551 35.7489 28.301 35.8935 25.4177C36.0623 22.4461 36.0623 13.5472 35.8935 10.5755ZM32.0525 28.6062C31.4257 30.1804 30.2123 31.3932 28.6292 32.0277C26.2587 32.9673 20.6337 32.7505 18.0141 32.7505C15.3944 32.7505 9.76138 32.9593 7.39888 32.0277C5.82388 31.4012 4.61049 30.1884 3.97567 28.6062C3.03549 26.2369 3.25246 20.6149 3.25246 17.9966C3.25246 15.3783 3.04353 9.74825 3.97567 7.38698C4.60246 5.81281 5.81585 4.60005 7.39888 3.96556C9.76942 3.02587 15.3944 3.24272 18.0141 3.24272C20.6337 3.24272 26.2667 3.0339 28.6292 3.96556C30.2042 4.59202 31.4176 5.80477 32.0525 7.38698C32.9926 9.75628 32.7757 15.3783 32.7757 17.9966C32.7757 20.6149 32.9926 26.245 32.0525 28.6062Z" fill="#181818"/>
</svg>
