<svg width="48" height="48" viewBox="0 0 48 48" fill="none" xmlns="http://www.w3.org/2000/svg">
<circle cx="24" cy="24" r="24" fill="#EEEEEC" fill-opacity="0.5"/>
<path d="M27.0133 13.0028C27.4767 13.0021 27.9257 13.1297 28.2826 13.3635C28.4834 13.4951 28.6494 13.6567 28.771 13.8392C28.8927 14.0216 28.9677 14.2212 28.9916 14.4266C29.0156 14.6319 28.988 14.839 28.9106 15.036C28.8332 15.2329 28.7074 15.4158 28.5404 15.5743L19.6556 23.9785L28.2231 32.3984C28.3878 32.5588 28.5108 32.7433 28.585 32.9414C28.6593 33.1395 28.6833 33.3472 28.6556 33.5527C28.628 33.7581 28.5493 33.9572 28.424 34.1386C28.2987 34.3199 28.1293 34.4798 27.9256 34.6092C27.7204 34.7519 27.4801 34.8596 27.2198 34.9255C26.9594 34.9913 26.6847 35.0139 26.4128 34.9918C26.1409 34.9697 25.8778 34.9034 25.6398 34.7971C25.4019 34.6908 25.1943 34.5468 25.0301 34.374L15.4512 24.9663C15.1595 24.6857 15 24.3338 15 23.9707C15 23.6075 15.1595 23.2556 15.4512 22.975L25.3672 13.5673C25.5662 13.3775 25.8189 13.2276 26.1049 13.1295C26.3909 13.0314 26.7021 12.988 27.0133 13.0028Z" fill="#181818" fill-opacity="0.5"/>
</svg>
