<svg width="37" height="36" viewBox="0 0 37 36" fill="none" xmlns="http://www.w3.org/2000/svg">
<path d="M0.0195312 18.0018C0.113141 12.8929 1.91692 8.62646 5.43447 5.20612C8.95202 1.78578 13.1464 0.0468047 18.0213 0C23.2707 0.0936094 27.5731 1.88659 30.925 5.37894C34.277 8.87129 35.9763 13.0801 36.0231 18.0018C35.9295 23.0639 34.1257 27.3195 30.6082 30.7651C27.0906 34.207 22.8962 35.9532 18.0213 36C16.3328 36 14.6478 35.7408 12.9592 35.2259C13.2869 34.7111 13.6145 34.1242 13.9421 33.4689C14.3166 32.6733 14.7846 31.1719 15.3499 28.9685C15.4903 28.36 15.7027 27.5392 15.9835 26.5059C16.3112 27.0675 16.8728 27.5824 17.6721 28.054C19.7819 29.0369 22.0069 28.9433 24.3508 27.7732C26.7882 26.3654 28.4768 24.1872 29.4129 21.2349C30.2554 18.1422 30.1509 15.2691 29.096 12.6229C28.0411 9.973 26.1545 8.06481 23.4363 6.89109C20.0159 5.90819 16.6856 6.0126 13.4525 7.20792C10.2194 8.40324 7.96913 10.4554 6.7018 13.3609C6.37417 14.4374 6.17615 15.5068 6.10414 16.5617C6.03213 17.6166 6.06814 18.6463 6.20855 19.6544C6.34896 20.6625 6.7018 21.5662 7.26346 22.3618C7.82511 23.1575 8.57759 23.7696 9.51368 24.1908C9.7477 24.2844 9.93492 24.2844 10.0753 24.1908C10.2626 24.0972 10.4498 23.7228 10.637 23.0675C10.8242 22.4122 10.8962 21.9658 10.8494 21.7318C10.8026 21.6382 10.709 21.4726 10.5686 21.2385C9.58569 19.6436 9.25446 17.9694 9.58569 16.2124C9.91332 14.4554 10.6406 12.9649 11.7639 11.748C13.4993 10.1998 15.5263 9.35734 17.8449 9.21692C20.1635 9.07651 22.1473 9.71017 23.7855 11.1143C24.6748 12.144 25.2509 13.3861 25.5065 14.8407C25.7621 16.2952 25.7657 17.6886 25.5065 19.0243C25.2473 20.36 24.79 21.613 24.1347 22.7867C22.961 24.6157 21.5785 25.5518 19.9871 25.5986C19.051 25.5518 18.2878 25.1881 17.7009 24.5077C17.114 23.8272 16.9376 23.0423 17.1752 22.153C17.2689 21.6382 17.5497 20.6301 18.0177 19.1287C18.4858 17.6274 18.745 16.5041 18.7918 15.7552C18.6514 13.973 17.8305 13.0585 16.3292 13.0117C15.1554 13.1521 14.2914 13.6814 13.7261 14.5923C13.1608 15.5032 12.8584 16.5509 12.8116 17.721C12.952 19.0819 13.1644 20.018 13.4453 20.5329C12.9304 22.6427 12.5308 24.3312 12.25 25.595C12.1563 25.9226 11.8971 26.9307 11.4759 28.6193C11.0546 30.3078 10.8206 31.5968 10.7738 32.4861V34.4554C7.44707 32.9073 4.81881 30.6715 2.89982 27.7408C0.980827 24.8101 0.0195312 21.5626 0.0195312 18.0018Z" fill="#181818"/>
</svg>
