<svg width="48" height="48" viewBox="0 0 48 48" fill="none" xmlns="http://www.w3.org/2000/svg">
<circle cx="24" cy="24" r="24" transform="rotate(180 24 24)" fill="#EEEEEC"/>
<path d="M20.9867 34.9972C20.5233 34.9979 20.0743 34.8703 19.7175 34.6365C19.5166 34.5049 19.3506 34.3433 19.229 34.1608C19.1073 33.9784 19.0323 33.7788 19.0084 33.5734C18.9844 33.3681 19.012 33.161 19.0894 32.964C19.1668 32.7671 19.2926 32.5842 19.4596 32.4257L28.3444 24.0215L19.7769 15.6016C19.6122 15.4412 19.4892 15.2567 19.415 15.0586C19.3407 14.8605 19.3167 14.6528 19.3444 14.4473C19.372 14.2419 19.4507 14.0428 19.576 13.8614C19.7013 13.6801 19.8707 13.5202 20.0744 13.3908C20.2796 13.2481 20.5199 13.1404 20.7802 13.0745C21.0406 13.0087 21.3153 12.9861 21.5872 13.0082C21.8591 13.0303 22.1222 13.0966 22.3602 13.2029C22.5981 13.3092 22.8057 13.4532 22.9699 13.626L32.5488 23.0337C32.8405 23.3143 33 23.6662 33 24.0293C33 24.3925 32.8405 24.7444 32.5488 25.025L22.6328 34.4327C22.4338 34.6225 22.1811 34.7724 21.8951 34.8705C21.6091 34.9686 21.2979 35.012 20.9867 34.9972Z" fill="#181818"/>
</svg>
