<svg width="263" height="71" viewBox="0 0 263 71" fill="none" xmlns="http://www.w3.org/2000/svg">
<path fill-rule="evenodd" clip-rule="evenodd" d="M15.8462 5.28H10.3262V0.48H26.6462V5.28H21.1262V34.08H15.8462V5.28ZM29.2025 0.48H34.4825V14.16H40.1465V0.48H45.4265V34.08H40.1465V18.96H34.4825V34.08H29.2025V0.48ZM49.3588 0.48H63.7588V5.28H54.6388V14.16H61.8868V18.96H54.6388V29.28H63.7588V34.08H49.3588V0.48ZM73.2358 0.48H78.3238L80.6758 26.304H80.7718L83.2678 0.48H89.0278L91.5238 26.304H91.6198L93.9718 0.48H98.5318L95.1238 34.08H88.5478L86.1478 11.424H86.0518L83.6518 34.08H76.6438L73.2358 0.48ZM104.626 0.48H111.778L117.25 34.08H111.97L111.01 27.408V27.504H105.01L104.05 34.08H99.1543L104.626 0.48ZM110.386 22.944L108.034 6.336H107.938L105.634 22.944H110.386ZM119.812 0.48H127.636C130.356 0.48 132.34 1.12 133.588 2.4C134.836 3.648 135.46 5.584 135.46 8.208V10.272C135.46 13.76 134.308 15.968 132.004 16.896V16.992C133.284 17.376 134.18 18.16 134.692 19.344C135.236 20.528 135.508 22.112 135.508 24.096V30C135.508 30.96 135.54 31.744 135.604 32.352C135.668 32.928 135.828 33.504 136.084 34.08H130.708C130.516 33.536 130.388 33.024 130.324 32.544C130.26 32.064 130.228 31.2 130.228 29.952V23.808C130.228 22.272 129.972 21.2 129.46 20.592C128.98 19.984 128.132 19.68 126.916 19.68H125.092V34.08H119.812V0.48ZM127.012 14.88C128.068 14.88 128.852 14.608 129.364 14.064C129.908 13.52 130.18 12.608 130.18 11.328V8.736C130.18 7.52 129.956 6.64 129.508 6.096C129.092 5.552 128.42 5.28 127.492 5.28H125.092V14.88H127.012ZM139.171 0.48H153.571V5.28H144.451V14.16H151.699V18.96H144.451V29.28H153.571V34.08H139.171V0.48ZM156.609 0.48H161.889V14.16H167.553V0.48H172.833V34.08H167.553V18.96H161.889V34.08H156.609V0.48ZM184.397 34.56C181.805 34.56 179.821 33.824 178.445 32.352C177.069 30.88 176.381 28.8 176.381 26.112V8.448C176.381 5.76 177.069 3.68 178.445 2.208C179.821 0.736 181.805 0 184.397 0C186.989 0 188.973 0.736 190.349 2.208C191.725 3.68 192.413 5.76 192.413 8.448V26.112C192.413 28.8 191.725 30.88 190.349 32.352C188.973 33.824 186.989 34.56 184.397 34.56ZM184.397 29.76C186.221 29.76 187.133 28.656 187.133 26.448V8.112C187.133 5.904 186.221 4.8 184.397 4.8C182.573 4.8 181.661 5.904 181.661 8.112V26.448C181.661 28.656 182.573 29.76 184.397 29.76ZM203.664 34.56C201.104 34.56 199.152 33.84 197.808 32.4C196.464 30.928 195.792 28.832 195.792 26.112V0.48H201.072V26.496C201.072 27.648 201.296 28.48 201.744 28.992C202.224 29.504 202.896 29.76 203.76 29.76C204.624 29.76 205.28 29.504 205.728 28.992C206.208 28.48 206.448 27.648 206.448 26.496V0.48H211.536V26.112C211.536 28.832 210.864 30.928 209.52 32.4C208.176 33.84 206.224 34.56 203.664 34.56ZM222.16 34.56C219.6 34.56 217.664 33.84 216.352 32.4C215.04 30.928 214.384 28.832 214.384 26.112V24.192H219.376V26.496C219.376 28.672 220.288 29.76 222.112 29.76C223.008 29.76 223.68 29.504 224.128 28.992C224.608 28.448 224.848 27.584 224.848 26.4C224.848 24.992 224.528 23.76 223.888 22.704C223.248 21.616 222.064 20.32 220.336 18.816C218.16 16.896 216.64 15.168 215.776 13.632C214.912 12.064 214.48 10.304 214.48 8.352C214.48 5.696 215.152 3.648 216.496 2.208C217.84 0.736 219.792 0 222.352 0C224.88 0 226.784 0.736 228.064 2.208C229.376 3.648 230.032 5.728 230.032 8.448V9.84H225.04V8.112C225.04 6.96 224.816 6.128 224.368 5.616C223.92 5.072 223.264 4.8 222.4 4.8C220.64 4.8 219.76 5.872 219.76 8.016C219.76 9.232 220.08 10.368 220.72 11.424C221.392 12.48 222.592 13.76 224.32 15.264C226.528 17.184 228.048 18.928 228.88 20.496C229.712 22.064 230.128 23.904 230.128 26.016C230.128 28.768 229.44 30.88 228.064 32.352C226.72 33.824 224.752 34.56 222.16 34.56ZM233.156 0.48H247.556V5.28H238.436V14.16H245.684V18.96H238.436V29.28H247.556V34.08H233.156V0.48ZM0 45.0801C0 44.6659 0.335786 44.3301 0.75 44.3301H261.75C262.164 44.3301 262.5 44.6659 262.5 45.0801C262.5 45.4943 262.164 45.8301 261.75 45.8301H0.75C0.335786 45.8301 0 45.4943 0 45.0801ZM39.876 56.7801H36.779V70.0801H38.869V64.3801H39.591C40.0723 64.3801 40.408 64.5004 40.598 64.7411C40.8007 64.9817 40.902 65.4061 40.902 66.0141V68.4461C40.902 68.9401 40.9147 69.2821 40.94 69.4721C40.9653 69.6621 41.016 69.8647 41.092 70.0801H43.22C43.1187 69.8521 43.0553 69.6241 43.03 69.3961C43.0047 69.1554 42.992 68.8451 42.992 68.4651V66.1281C42.992 65.3427 42.8843 64.7157 42.669 64.2471C42.4663 63.7784 42.1117 63.4681 41.605 63.3161V63.2781C42.517 62.9107 42.973 62.0367 42.973 60.6561V59.8391C42.973 58.8004 42.726 58.0341 42.232 57.5401C41.738 57.0334 40.9527 56.7801 39.876 56.7801ZM40.56 62.1571C40.3573 62.3724 40.047 62.4801 39.629 62.4801H38.869V58.6801H39.819C40.1863 58.6801 40.4523 58.7877 40.617 59.0031C40.7943 59.2184 40.883 59.5667 40.883 60.0481V61.0741C40.883 61.5807 40.7753 61.9417 40.56 62.1571ZM50.1421 56.7801H44.4421V70.0801H50.1421V68.1801H46.5321V64.0951H49.4011V62.1951H46.5321V58.6801H50.1421V56.7801ZM52.9024 56.7801H50.7934L52.8074 70.0801H55.5814L57.5954 56.7801H55.6764L54.3084 67.0971H54.2704L52.9024 56.7801ZM60.6893 56.7801H58.5993V70.0801H60.6893V56.7801ZM63.8126 56.7801H61.7036L63.7176 70.0801H66.4916L68.5056 56.7801H66.5866L65.2186 67.0971H65.1806L63.8126 56.7801ZM75.2095 56.7801H69.5095V70.0801H75.2095V68.1801H71.5995V64.0951H74.4685V62.1951H71.5995V58.6801H75.2095V56.7801ZM86 64.5801C86 65.6846 85.1046 66.5801 84 66.5801C82.8954 66.5801 82 65.6846 82 64.5801C82 63.4755 82.8954 62.5801 84 62.5801C85.1046 62.5801 86 63.4755 86 64.5801ZM95.876 56.7801H92.779V70.0801H94.869V64.3801H95.591C96.0723 64.3801 96.408 64.5004 96.598 64.7411C96.8007 64.9817 96.902 65.4061 96.902 66.0141V68.4461C96.902 68.9401 96.9147 69.2821 96.94 69.4721C96.9653 69.6621 97.016 69.8647 97.092 70.0801H99.22C99.1187 69.8521 99.0553 69.6241 99.03 69.3961C99.0047 69.1554 98.992 68.8451 98.992 68.4651V66.1281C98.992 65.3427 98.8843 64.7157 98.669 64.2471C98.4663 63.7784 98.1117 63.4681 97.605 63.3161V63.2781C98.517 62.9107 98.973 62.0367 98.973 60.6561V59.8391C98.973 58.8004 98.726 58.0341 98.232 57.5401C97.738 57.0334 96.9527 56.7801 95.876 56.7801ZM96.56 62.1571C96.3573 62.3724 96.047 62.4801 95.629 62.4801H94.869V58.6801H95.819C96.1863 58.6801 96.4523 58.7877 96.617 59.0031C96.7943 59.2184 96.883 59.5667 96.883 60.0481V61.0741C96.883 61.5807 96.7753 61.9417 96.56 62.1571ZM106.142 56.7801H100.442V70.0801H106.142V68.1801H102.532V64.0951H105.401V62.1951H102.532V58.6801H106.142V56.7801ZM110.536 56.7801H107.344V70.0801H110.536C111.575 70.0801 112.354 69.8014 112.873 69.2441C113.393 68.6867 113.652 67.8697 113.652 66.7931V60.0671C113.652 58.9904 113.393 58.1734 112.873 57.6161C112.354 57.0587 111.575 56.7801 110.536 56.7801ZM111.277 67.8761C111.1 68.0787 110.84 68.1801 110.498 68.1801H109.434V58.6801H110.498C110.84 58.6801 111.1 58.7814 111.277 58.9841C111.467 59.1867 111.562 59.5161 111.562 59.9721V66.8881C111.562 67.3441 111.467 67.6734 111.277 67.8761ZM120.763 56.7801H115.063V70.0801H120.763V68.1801H117.153V64.0951H120.022V62.1951H117.153V58.6801H120.763V56.7801ZM122.421 69.4151C122.94 69.9851 123.706 70.2701 124.72 70.2701C125.746 70.2701 126.525 69.9787 127.057 69.3961C127.601 68.8134 127.874 67.9774 127.874 66.8881C127.874 66.0521 127.709 65.3237 127.38 64.7031C127.05 64.0824 126.449 63.3921 125.575 62.6321C124.891 62.0367 124.416 61.5301 124.15 61.1121C123.896 60.6941 123.77 60.2444 123.77 59.7631C123.77 58.9144 124.118 58.4901 124.815 58.4901C125.157 58.4901 125.416 58.5977 125.594 58.8131C125.771 59.0157 125.86 59.3451 125.86 59.8011V60.4851H127.836V59.9341C127.836 58.8574 127.576 58.0341 127.057 57.4641C126.55 56.8814 125.796 56.5901 124.796 56.5901C123.782 56.5901 123.01 56.8814 122.478 57.4641C121.946 58.0341 121.68 58.8447 121.68 59.8961C121.68 60.6687 121.851 61.3654 122.193 61.9861C122.535 62.5941 123.136 63.2781 123.998 64.0381C124.682 64.6334 125.15 65.1464 125.404 65.5771C125.657 65.9951 125.784 66.4827 125.784 67.0401C125.784 67.5087 125.689 67.8507 125.499 68.0661C125.321 68.2687 125.055 68.3701 124.701 68.3701C123.979 68.3701 123.618 67.9394 123.618 67.0781V66.1661H121.642V66.9261C121.642 68.0027 121.901 68.8324 122.421 69.4151ZM131.162 56.7801H129.072V70.0801H131.162V56.7801ZM133.373 69.4151C133.905 69.9851 134.678 70.2701 135.691 70.2701C136.705 70.2701 137.477 69.9851 138.009 69.4151C138.541 68.8324 138.807 68.0027 138.807 66.9261V62.5751H135.786V64.4751H136.831V67.0781C136.831 67.9394 136.47 68.3701 135.748 68.3701C135.026 68.3701 134.665 67.9394 134.665 67.0781V59.8011C134.665 58.9271 135.026 58.4901 135.748 58.4901C136.47 58.4901 136.831 58.9271 136.831 59.8011V61.0741H138.807V59.9341C138.807 58.8574 138.541 58.0341 138.009 57.4641C137.477 56.8814 136.705 56.5901 135.691 56.5901C134.678 56.5901 133.905 56.8814 133.373 57.4641C132.841 58.0341 132.575 58.8574 132.575 59.9341V66.9261C132.575 68.0027 132.841 68.8324 133.373 69.4151ZM142.771 56.7801H140.149V70.0801H142.011V60.3711H142.049L144.557 70.0801H146.704V56.7801H144.842V64.7411H144.804L142.771 56.7801ZM158 64.5801C158 65.6846 157.105 66.5801 156 66.5801C154.895 66.5801 154 65.6846 154 64.5801C154 63.4755 154.895 62.5801 156 62.5801C157.105 62.5801 158 63.4755 158 64.5801ZM167.876 56.7801H164.779V70.0801H166.869V64.3801H167.591C168.072 64.3801 168.408 64.5004 168.598 64.7411C168.801 64.9817 168.902 65.4061 168.902 66.0141V68.4461C168.902 68.9401 168.915 69.2821 168.94 69.4721C168.965 69.6621 169.016 69.8647 169.092 70.0801H171.22C171.119 69.8521 171.055 69.6241 171.03 69.3961C171.005 69.1554 170.992 68.8451 170.992 68.4651V66.1281C170.992 65.3427 170.884 64.7157 170.669 64.2471C170.466 63.7784 170.112 63.4681 169.605 63.3161V63.2781C170.517 62.9107 170.973 62.0367 170.973 60.6561V59.8391C170.973 58.8004 170.726 58.0341 170.232 57.5401C169.738 57.0334 168.953 56.7801 167.876 56.7801ZM168.56 62.1571C168.357 62.3724 168.047 62.4801 167.629 62.4801H166.869V58.6801H167.819C168.186 58.6801 168.452 58.7877 168.617 59.0031C168.794 59.2184 168.883 59.5667 168.883 60.0481V61.0741C168.883 61.5807 168.775 61.9417 168.56 62.1571ZM178.142 56.7801H172.442V70.0801H178.142V68.1801H174.532V64.0951H177.401V62.1951H174.532V58.6801H178.142V56.7801ZM181.434 56.7801H179.344V70.0801H181.434V56.7801ZM185.983 56.7801H183V70.0801H184.824V60.0101H184.862L186.382 70.0801H188.13L189.65 60.0101H189.688V70.0801H191.664V56.7801H188.681L187.351 66.2991H187.313L185.983 56.7801ZM197.669 56.7801H194.838L192.672 70.0801H194.61L194.99 67.4771H197.365V67.4391L197.745 70.0801H199.835L197.669 56.7801ZM196.187 59.0981L197.118 65.6721H195.237L196.149 59.0981H196.187ZM201.458 69.4151C201.99 69.9851 202.763 70.2701 203.776 70.2701C204.79 70.2701 205.562 69.9851 206.094 69.4151C206.626 68.8324 206.892 68.0027 206.892 66.9261V62.5751H203.871V64.4751H204.916V67.0781C204.916 67.9394 204.555 68.3701 203.833 68.3701C203.111 68.3701 202.75 67.9394 202.75 67.0781V59.8011C202.75 58.9271 203.111 58.4901 203.833 58.4901C204.555 58.4901 204.916 58.9271 204.916 59.8011V61.0741H206.892V59.9341C206.892 58.8574 206.626 58.0341 206.094 57.4641C205.562 56.8814 204.79 56.5901 203.776 56.5901C202.763 56.5901 201.99 56.8814 201.458 57.4641C200.926 58.0341 200.66 58.8574 200.66 59.9341V66.9261C200.66 68.0027 200.926 68.8324 201.458 69.4151ZM210.324 56.7801H208.234V70.0801H210.324V56.7801ZM214.511 56.7801H211.889V70.0801H213.751V60.3711H213.789L216.297 70.0801H218.444V56.7801H216.582V64.7411H216.544L214.511 56.7801ZM225.698 56.7801H219.998V70.0801H225.698V68.1801H222.088V64.0951H224.957V62.1951H222.088V58.6801H225.698V56.7801Z" fill="#F9F9F8"/>
</svg>
